<svg xmlns="http://www.w3.org/2000/svg" viewBox="0 0 192 192" width="192" height="192">
  <defs>
    <radialGradient id="gold-glow" cx="50%" cy="50%" r="50%">
      <stop offset="0%" stop-color="#FFF3D4"/>
      <stop offset="60%" stop-color="#E5D2A5"/>
      <stop offset="100%" stop-color="#b59f6d"/>
    </radialGradient>
    <linearGradient id="shield-grad" x1="0%" y1="0%" x2="100%" y2="100%">
      <stop offset="0%" stop-color="#2D2D35" />
      <stop offset="100%" stop-color="#121215" />
    </linearGradient>
  </defs>
  <!-- Background Shield Grid -->
  <rect width="192" height="192" fill="#070709" rx="40"/>
  <rect x="8" y="8" width="176" height="176" fill="url(#shield-grad)" rx="36" stroke="#E5D2A5" stroke-width="2" stroke-opacity="0.2"/>
  
  <g transform="translate(48, 48)">
    <!-- Orbital Rings -->
    <ellipse cx="48" cy="48" rx="44" ry="18" fill="none" stroke="url(#gold-glow)" stroke-width="2.5" stroke-dasharray="6 3" transform="rotate(-30, 48, 48)" opacity="0.6"/>
    <ellipse cx="48" cy="48" rx="44" ry="18" fill="none" stroke="url(#gold-glow)" stroke-width="2" transform="rotate(45, 48, 48)" opacity="0.4"/>
    
    <!-- Central Crest Nucleus Symbol -->
    <circle cx="48" cy="48" r="10" fill="url(#gold-glow)" filter="drop-shadow(0px 0px 8px rgba(229, 210, 165, 0.8))"/>
    
    <!-- Letter N Custom Typography -->
    <path d="M 28 20 
             L 28 76 
             A 2 2 0 0 0 30 78 
             L 36 78 
             A 2 2 0 0 0 38 76 
             L 38 41 
             L 58 76 
             A 2 2 0 0 0 60 78 
             L 66 78 
             A 2 2 0 0 0 68 76 
             L 68 20 
             A 2 2 0 0 0 66 18 
             L 60 18 
             A 2 2 0 0 0 58 20 
             L 58 55 
             L 38 20 
             A 2 2 0 0 0 36 18 
             L 30 18 
             A 2 2 0 0 0 28 20 Z" 
          fill="url(#gold-glow)" />
  </g>
</svg>
